<?xml version="1.0" encoding="utf-8"?>
<!-- Generator: Adobe Illustrator 19.2.1, SVG Export Plug-In . SVG Version: 6.00 Build 0)  -->
<svg className='logo' version="1.1" id="Calque_1" xmlns="http://www.w3.org/2000/svg" xmlns:xlink="http://www.w3.org/1999/xlink" x="0px" y="0px"
	 viewBox="0 0 432 432" style="enable-background:new 0 0 432 432;" xml:space="preserve">
<style type="text/css">
	.st0{fill:#FFFFFF}
	.st1{fill:#FFFFFF}
	.st2{fill:#FFFFFF}
	.st3{fill:#FFFFFF}
	.st4{fill:#FFFFFF}
	.st5{fill:#FFFFFF}
	.st6{fill:#FFFFFF}
	.st7{fill:#FFFFFF}
	.st8{fill:#FFFFFF}
	.st9{fill:#FFFFFF}
	.st10{fill:#FFFFFF}
	.st11{fill:#FFFFFF}
	.st12{fill:#FFFFFF}
	.st13{fill:#FFFFFF}
	.st14{fill:#FFFFFF}
	.st15{fill:#FFFFFF}
	.st16{fill:#FFFFFF}
	.st17{fill:#FFFFFF}
	.st18{fill:#FFFFFF}
	.st19{fill:#FFFFFF}
	.st20{fill:#FFFFFF}
	.st21{fill:#FFFFFF}
	.st22{fill:#FFFFFF}
	.st23{fill:#FFFFFF}
	.st24{fill:#FFFFFF}
	.st25{fill:#FFFFFF}
	.st26{fill:#FFFFFF}
	.st27{fill:#FFFFFF}
	.st28{fill:#FFFFFF}
	.st29{fill:#FFFFFF}
	.st30{fill:#FFFFFF}
	.st31{fill:#FFFFFF}
	.st32{fill:#FFFFFF}
	.st33{fill:#FFFFFF}
	.st34{fill:#FFFFFF}
	.st35{fill:#FFFFFF}
	.st36{fill:#FFFFFF}
	.st37{fill:#FFFFFF}
	.st38{fill:#FFFFFF}
	.st39{fill:#FFFFFF}
	.st40{fill:#FFFFFF}
	.st41{fill:#FFFFFF}
	.st42{fill:#FFFFFF}
	.st43{fill:#FFFFFF}
	.st44{fill:#FFFFFF}
	.st45{fill:#FFFFFF}
	.st46{fill:#FFFFFF}
	.st47{fill:#FFFFFF}
</style>
<path d="M354.8,261.3c1,0.6,1.6,1.2,2.6,1.6c1,0.4,1.8-0.3,2.4-1.1c0.6-0.8-0.1-1.9-0.6-2.7c-1.3-1.9-2.5-2.4-4.1-3.9
	c-0.6-1,2,1.9,3.3,1.7c1.4-0.1,2.4-2.5,1.4-3.4c-1-1-4.5-3-3.7-3.5c1.5,0.2,3.3,2.8,4.5,0.8c0.8-1.1,1-1.6-0.5-3.1
	c-3.2-4.8-8.6-7.6-13.8-10.1c-1.7-0.8-3.4-1.7-4.6-3.1c-0.9-1-1.5-2.3-2-3.5c-1.7-4.3-2.8-8.8-4.7-13c-2.5-5.6-6.3-10.6-9.2-16
	c-3.1-5.7-5.1-12-8.6-17.4c-5.6-8.9-16.6-16.2-21.9-25.4c0.3-0.4,0.5-0.9,0.7-1.3c0.2-0.5,0.4-1,0.2-1.4c-0.2-0.5-0.8-0.8-1.3-1.1
	c-3-1.6-5.7-3.8-7.9-6.4c-3.5-4.2-5.6-9.5-9-13.7c-2.4-3-5.4-5.4-8.5-7.9c-1.1-0.9-2.2-1.8-3.4-2.7c2.9-1.4,5.5-3.1,7.1-5
	c0,0,0.7-0.8,0.1-1.8c-0.1-0.3-0.3-0.5-0.6-0.8c-2.3-2-5-3.6-7.7-5.1c-0.8-0.4-1.6-0.9-2.3-1.5c-0.5-0.4-0.8-0.9-1-1.5
	c-0.1-0.2-0.1-0.3-0.1-0.5c-0.1-0.8,0-1.7,0.1-2.5c0.3-2.3-0.1-4.5-0.4-6.8c-0.5-3.8-1.2-7.8-3.8-10.6c-1.1-1.1-2.4-2-3.6-3
	c-1.4-1.2-2.6-2.6-4-3.7c-2.5-1.9-5.7-2.7-8.9-2.8l0,0c-9-0.9-18.5,3.5-24.1,10.7c-4.2,5.3-6.3,12.1-6.2,18.9
	c-0.5-0.6-1.1-0.9-2.7-2c-1-0.6-4-1.4-5.2-1.7c-1.5-0.3-3,0.2-4.4,0.7c-6.3,2.2-12.5,4.7-18.6,7.6c0,0.3,0,0.6,0,0.8
	c0,1-0.3,2.1-0.8,3c-1-0.4-0.5-2-0.7-3.1c-0.8,0.4-1.7,0.8-2.5,1.2c-0.4,2.7-0.7,5.5-2.2,7.7c0.1-2.3,0.4-4.7,0.8-7
	c-1.2,0.6-2.5,1.1-3.7,1.5c-0.1,0.1-0.2,0.3-0.3,0.4c-1,1.3-1.8,2.9-3.1,3.9c0.4-1.2,0.9-2.4,1.3-3.6c-2.2,0.6-4.4,1.1-6.5,1.8
	c-1.2,0.4-2.3,0.8-3.4,1.3c-2,1.6-3.8,3.5-5.3,5.6c-1.1,1.5-2.2,3.3-3.9,4.1c0.7-2.4,1.8-4.8,3.4-6.8c-5.4,2.9-8.9,5.4-14,8.9
	l-0.2,0c-2.9,1.8-5.7,3.7-8.6,5.5c-0.7,0.5-1.6,1.1-1.7,1.9c0,0.4,0,0.7,0.2,1.1c-2.8,1-5.6,2.1-8.3,3.1c-1.4,0.5-2.8,1.1-4,2
	c-1.1,0.9-1.9,2.1-2.7,3.4C105.2,163,97,176,88.7,188.9c-2.1,3.3-4.3,6.7-7.6,8.8c-1.9,1.3-4.2,2.1-5.9,3.6c-3,2.7-3.6,7.1-4.1,11.2
	c-0.1,1.2-0.3,2.4-0.1,3.6c0.2,1.3,0.8,2.6,1.4,3.8c1.4,2.8,3,5.6,4.6,8.3c0.4,0.6,0.8,1.2,1.4,1.6c1.2,0.6,2.8,3.2,3.7,2.3
	c1.4-1.4,2.1-6.7,2.4-8.7c0.2-1.6,0.1-3.4,0.9-4.8c0.8-1.5,3-2.3,4-0.9c0.5,0.7,0.4,1.5,0.6,2.3c0.1,0.8,0.6,1.7,1.5,1.7
	c0.4,0,0.7-0.2,1-0.4c1.9-1.5,2.9-4,2.9-6.5c0-2.4-0.7-4.8-1.5-7.1c-0.4-1-0.8-2.2-0.5-3.2c0.2-0.7,0.5-1.2,0.9-1.8
	c3.4-5.3,6.9-10.5,11-15.3c6.9-8.1,15.8-14.7,20.6-24.2c0.6-1.1,1.1-2.3,2.2-2.9c0.8-0.5,1.7-0.6,2.6-0.6c2.6-0.2,6.2-0.5,9-0.8
	c1.2,1.2,2.4,2.5,3.8,3.8l0.3,0.2c3-2,6.3-4.7,9.3-6.7c0.9-0.6,1.5-1.1,1.9-1.7c1-0.2,1.8-0.7,2.7-1.3c1.8-1.1,3.7-2,5.6-2.8
	c0.1-0.1,0.3-0.2,0.4-0.3c0.6-0.6,1-1.3,1.4-2c1.2-2,2.3-4.1,3.5-6.1c-0.5,2-0.9,4.1-1.4,6.1c-0.1,0.3-0.1,0.7,0.2,0.8
	c0.2,0,0.3-0.1,0.5-0.2c1.2-0.9,2.1-2.6,3.7-2.7c-1.2,1.4-2.2,3-2.7,4.7c0.9-0.2,1.8-0.4,2.6-0.6c-0.1,0.8-1,1.1-1.7,1.5
	c-0.3,0.2-0.6,0.5-0.8,0.8c0.1,0.5,0.2,1,0.2,1.4c-5.4,1.3-10.1,4.9-12.7,9.8c-2.7,4.9-3.4,10.8-2.5,16.4c0.4,2.7,1.2,5.4,1.6,8.1
	c0.1,0.7,0.1,1.3,0.2,2c0.1-0.1,0.1-0.2,0.2-0.2c1.5-2.1,3.1-4.1,4.6-6.2c0.3-0.4,0.7-0.8,1.2-0.7c-0.9,4-1.4,5.8-2.4,9.7
	c-0.8,3.4-1.3,7-1.5,10.5c0.7,1.4,1.4,2.8,2.1,4.2c0.2,0.3,0.3,0.7,0.5,1c0.4-0.3,0.7-0.7,1-1c1-1.4,2.1-2.9,3.1-4.3
	c0.4,1.7,0.4,3.5,0.1,5.2c0.5-0.5,0.9-1.1,1.4-1.6c0.2,0.5,0.3,1,0.3,1.5c0.2,3.4,0.7,10.9,0.8,15.1c0.7,1.6,1.3,3.3,2,4.9
	c1-2.8,2-5.6,3-8.4c0.9,4.3-0.5,8.7-1,13.1c-0.1,0.8-0.2,1.5-0.2,2.3c0.9,6.2,2,12.2,4.3,17.8c1.2-1.3,2.4-2.7,3.6-4
	c-0.4,2.3-1.8,4.4-2.4,6.6c0.2,0.3,0.4,0.7,0.5,1c1.3-1.5,2.7-3,4.3-4.2c0.1,1.1-0.6,2.1-1.2,3.1c-0.7,1.1-1.2,2.3-1.6,3.5
	c0.7,1.1,1.5,2.1,2.4,3.2c1.8-6.6,7.7-11.9,14.4-13.1c1.4-0.2,3-0.4,3.7-1.6c0.4-0.6,0.5-1.3,0.5-1.9c0.1-0.9,0.1-1.8,0.1-2.7
	c-0.9-0.7-1.9-1.2-3-1.6c1-0.4,1.9-0.7,2.9-1.1c-0.2-1.7-0.4-3.3-0.8-4.9c0-0.1,0-0.2-0.1-0.2c-2,0.6-3.8,1.5-5.5,2.6
	c-0.3-0.5,0.1-1.1,0.6-1.5c1.2-1.1,2.5-2.1,3.6-3.4c0.2-0.3,0.4-0.6,0.6-0.9c-0.4-1.6-0.9-3.2-1.4-4.8c-1-3.2-1.9-6.4-2.9-9.7
	c-2.4-8-4.8-16.5-2.4-24.5c1.1,2.4,0.2,5.2,0.2,7.8c0,1.7,0.4,3.3,0.9,4.9c1.3,5,2.6,10,3.9,15c0.2,0.7,0.6,1.5,1.2,1.4
	c0-5.9-0.5-11.9-1.5-17.7c1.5,1.1,1.9,3.2,2.1,5.1c0.4,3.4,0.8,6.9,1.2,10.3c0.1,0.6,0.1,1.3,0.5,1.8c0.6,1,2,1.3,3.2,1.3
	c1.2,0,2.4-0.3,3.6-0.1c1.2,0.2,2.2,0.9,3.3,1.4c2.8,1.4,6,1.7,9.1,1.9c7.4,0.6,22.2,0.8,22.2,0.8c7.3-0.4,13.4-0.9,20.3,0.4
	c0.9,0.2,2,0.2,2.3-0.7c0.1-0.4-0.1-0.9-0.3-1.3c-1.5-2.9-2.5-6.1-2.7-9.3c2.7,3.1,4.1,7.2,5.4,11.1c0.3,1,0.6,2,1.4,2.6
	c0.7,0.7,2,0.9,2.7,0.1c0.5-0.6,0.5-1.5,0.4-2.3c-0.4-2.8-0.8-5.7-1.2-8.5c-0.1-0.9-0.1-2.2,0.8-2.5c3.7,3.9,1.3,10.7,3.9,15.4
	c0.5-3.1,1.5-6.1,2.9-8.8c0.4-0.8,1-1.6,1.8-1.5c1.1,0.1,1.3,1.6,1.1,2.7c-0.9,3.8-3.7,7.1-4.1,11c0,0.5,0,1,0.4,1.3
	c1,0.6,1.4-1.5,2.5-1.9c0.3,1.5-0.8,3-1.1,4.5c-0.3,2,0.6,3.8,1.9,5.4c0.7,0.8,2.1-0.2,2.7-1.2c1-1.6,2-3.2,3.1-4.8
	c-0.6,2.5-1.3,5-1.9,7.5c-0.6,2.3-1.2,4.7-0.5,7c0.7,2.3,3,4.2,5.3,3.5c1-0.3,1.8-1,2.7-1.5c0.9-0.4,2.3-0.4,2.7,0.5
	c-1.9,2-3.9,3.9-5.8,5.9c-0.3,0.3-0.6,0.6-0.6,1c0,0.5,0.4,0.9,0.7,1.3c2.7,2.7,4.4,6.4,4.6,10.2c2.2-1.3,4.7-1.9,7.2-1.8
	c-2,1.9-4,3.7-5.9,5.6c-0.7,0.6-1.3,1.3-1.6,2.1c-0.8,2.5,2.4,4.6,2.8,7.2c0.4,2.8-2.4,6.3-0.2,8.2c2.4-2.7,6.7-3.4,9.8-1.7
	c-1.5,1.9-3.5,3.3-5.8,4c-1.1,0.4-2.5,0.6-3.2,1.6c-0.7,0.9-0.5,2.2-0.4,3.3c0.4,2.4,1,4.9,1.8,7.2c3.3-3,6.7-6,10.7-7.9
	c4-2,8.8-2.8,13-1.3c2.1,0.7,4.3,2,6.3,1.1c-0.7-1.4-2.1-2.4-3.6-2.7c-0.6-1.9,2.1,0.4,2.6-0.5c0.5-0.9,0.4-2.1,0.2-3.1
	c-2.1-11.2-9.5-20.8-11.8-31.9c-1.3-6.4-1-13.1-2.6-19.4c-1-4.1-2.9-8.1-2.5-12.3l-2.6-0.1c1.4-7.7,1.5-16.1-2.3-23
	c-4.3-7.8-12.9-12.3-21.3-15.5c-11.2-4.3-22.7-7-34.6-8.3l0,0c-1-0.9-2-1.7-3-2.6c-0.1-0.1-0.3-0.2-0.4-0.4c-0.2,0-0.5,0-0.7,0
	c-1.6,0.1-3.2,0.3-4.8,0.6c-1.3,0.3-2.7,0.7-4,0.4c0-0.2,0.2-0.4,0.4-0.6c2.3-1.7,5.4-1.9,8.1-2.9c0,0,0,0,0,0c0-0.7,0.2-1.3,0.3-2
	c0.3-1.7,0-3.4-0.6-4.9c-0.2-0.4-0.4-0.8-0.5-1.2c-1.1,0-2.2,0-3-0.7c-0.1-0.1-0.2-0.2-0.2-0.3c0-0.3,0.3-0.5,0.6-0.6
	c1.3-0.4,2.7-0.8,4-1.1c0.4-0.6,0.6-1.3,0.7-2c-0.8-0.5-1.8-0.8-2.7-1c-1.6-0.3-3.3-0.4-4.7-1.3c2.4-0.9,5.1-1.1,7.6-0.6
	c0.1-1.5,0.6-3,1.9-3.6c0.5-0.2,1-0.3,1.4-0.7c0-0.1-0.1-0.2-0.1-0.3c-0.6-2-1.2-4-1.9-6c1.5,0.8,2.4,2.3,3.1,3.9
	c0.5-0.4,1.2-0.6,1.9-0.6c0.6,0.1,1,0,1.4,0.1c0.6-3.1,1.2-6.2,1.8-9.3c0.5,0,0.7,0.6,0.7,1c0.2,2-0.6,4-0.7,6.1c0,1,0.1,2,0.3,3
	c1.4,0.6,2.8,1.5,4,2.5c1,0.8,1.8,1.8,2.9,2.5c0.9,0.6,2,1.1,3,1.5c4.5,2,8.7,4.4,12.8,7.2c0.8,0.5,1.6,1.1,2.5,1.3
	c0.5,0.1,0.9,0.1,1.4,0.1c3.9,7,10,14.6,16.4,18.9c0.9,0.6,1.9,1.2,2.7,2c0.8,0.8,1.3,1.7,1.9,2.6l5.3,8.5c7.4,12,14.8,24,22.2,36.1
	c1.8,3,3.7,6,4.8,9.3c0.8,2.5,1.3,5.2,2.4,7.6c1.1,2.4,2.9,4.5,4.9,6.2c1.5,1.4,3.3,2.7,5.3,2.9c1.2,0.1,2.5-0.1,3.7,0.3
	c1.5,0.5,4.8,3.3,6.1,4.2c1.4,0.9,3,0.2,3.4-1.4c0.3-1.3-2.4-4.1-3.3-5.1C356.3,263.6,353,260.3,354.8,261.3z M354.3,334.5
	c-5.6-0.2-12.6-0.5-18.4-1.5c-0.9-0.2-1.8-0.3-2.7-0.5c0.1-0.2,0.1-0.4,0.1-0.6c0.1-1,0-1.9-0.2-2.9c-0.1-0.3-0.2-0.7-0.2-1
	c-0.9-3.5-1.7-7-3.8-9.9c-0.4-0.5-0.8-1.1-1-1.7c-0.1-0.7,0.2-1.5,0.8-1.6c0.3-0.1,0.6,0,0.9-0.1c1.1-0.3,0.8-2,0-2.8
	c-1.3-1.6-3-2.8-5-3.5c0.7-0.9,1.5-1.4,1.8-2.5c0.1-0.4,0.2-0.9,0.1-1.3c-0.3-0.9-1.3-1.7-2.3-1.9c-3.4-0.8-4.9-1.4-8.4-1.7
	c-1.1-0.1-4.3,0.4-5.1,1.1c-0.8,0.6-1,1.7-1.2,2.6c-0.3,0.9-0.7,2-1.6,2.3c-0.9,0.4-2.5-1.9-2-2.7c-1.9,0.9-3.5,1.9-5.3,3.1
	c-0.9,0.6-2.1,1.8-2.7,2.6c-0.7,0.8-1,1.9-1.3,2.9c-0.4,1.2-0.7,2.5-1,3.7c-0.1,0.4-0.2,0.9-0.3,1.3c-0.1,0.5-0.2,0.9-0.1,1.4
	c0,0,0,0,0,0.1l-1.2-0.4l-4.8-1.7c-15.9-5.9-30.3-11.4-45.9-18c-10.6-3.9-21-8.6-31.6-12.5c-3.4-1.2-7.2-2.7-10.6-4.3
	c-0.8-0.4-1.6-0.8-2.4-1.2c-0.1-0.1-0.3-0.1-0.4-0.2c6-2.8,11.4-6.8,16-11.5c1-1.1,2.1-2.3,2-3.8c0-1.9-1.7-3.1-3.5-4
	c-0.4-0.2-0.8-0.4-1.1-0.5c-2-0.9-4-1.7-6-2.6c-1.7-0.7-3.4-1.5-4.8-2.7c-1.4-1.2-2.4-2.9-2.4-4.8c-1,1.4,0.4,3.3-1.7,4.7
	c0.4-1.1,0.8-2.3,0.7-3.4c-0.1-1.2-1-2.3-2.2-2.4c-0.6,0-1.2,0.3-1.8,0.6c-4,2.1-7.7,5-10.6,8.4c-0.6,0.6-1.1,1.4-0.9,2.3
	c0.3,1.4,2.4,1.6,3.1,2.9c-0.3,0.8-1.5,0.7-2.3,0.3c-0.8-0.4-2-0.6-2.4,0.2c-0.2,0.4-0.1,0.8,0.1,1.2c0.6,1.8,0.9,2.4,1.5,4.3
	c0.4,1.2,0.8,2.4,1.5,3.5c-0.1,0-0.1-0.1-0.2-0.1c-5-3.5-10-9.1-14.3-12.7c-0.3-0.2-0.5-0.4-0.9-0.5c-1.1-0.2-1.5,1.5-1.2,2.6
	c0.6,2.1,2,3.8,3.4,5.4c6.5,7.2,13.6,11.7,22,15.4c1.3,0.6,2.7,1.2,4,1.7c0.8,0.3,1.7,0.7,2.5,1l2.1,0.9c-1.2,1.1-2,2.7-1.3,5
	c-2.5-1.2-5.8-0.1-7.1,2.2c-1.3,2.3-0.9,6.2,1.9,7.5c0.5,2.1,1.9,4.1,3.8,5.1c2.5,1.3,5.8,0.9,8-0.9c0.8-0.7,1.4-1.5,1.8-2.4
	c0.7,0.4,1.9,0.5,2.3-0.1c0.5-0.7,0.3-1.7-0.2-2.5c2.8-2.1,5.4-4.3,7.9-6.7c15.8,6.6,61.7,25.7,73.8,30.4l0.8,0.3
	c1.5,0.5,2.8,1,4.1,1.5c-0.6,1.3-0.6,3.3-0.3,4.6c0,0.2,0.1,0.3,0.1,0.5c-1.2,0-2.7,0.5-3.4,0.9c-0.9,0.6-1.6,1.6-2,2.6
	c-0.7,1.9-0.7,4,0.2,5.8c0.9,1.7,2.9,2.9,5.1,2.9c0.4,1.2,1.3,2.4,2.8,3.4c0.2,1,0.6,1.9,1.2,2.6c0.7,0.9,1.7,1.5,2.7,2
	c2.1,1,4.7,1.4,6.8,0.4c2.8-1.3,4.3-4.6,4.3-7.7c0-1.7-0.3-3.5-1.2-5c-0.4-0.6-0.9-1.2-1.4-1.7c0.7,0,1.1-0.5,1.3-1
	c0.6-1.2,0.7-3,2.2-3.4l6.7,3.2c3.2,1.7,6.7,2.4,10.3,2.6c2.5,0.2,5.1,0.1,7.6,0.1c4.9-0.2,9.9-0.5,14.8-1.1
	c1.2-0.1,2.8-0.6,2.9-1.8C357.9,335.2,355.8,334.6,354.3,334.5z M189,255.9c1-0.9,3.4-1.5,3.9-1.5c0.5,0,0.6,0.1,0.9,0.3
	c0.3,0.1,0.9,0.1,1,0.4c0.1,0.4-1.3,1.2-1.6,1.5c-1.8,1.1-2.1,0.9-5.5,3.9C187.3,259,188,256.9,189,255.9z M191.6,264.5
	c-0.1-1.6,0.5-3.3,1.5-4.5c1.1-1.2,3.1-2.1,4.3-2c1.3,0.1,1.2,0.9,1.2,0.9c0,0.3-0.7,0.6-1,0.8C195.5,260.9,193.4,262.6,191.6,264.5
	z M196.7,268.5c-0.5-1.8-0.1-3.8,1.1-5.2c1.2-1.4,2.7-2.3,4.5-2.1c0.9,0.1,1.2,0.6,1,1.2c-0.2,0.5-0.7,0.9-1.1,1.2
	C200.2,265,198.3,266.6,196.7,268.5z M201.9,303.2c-0.5,0-1.4-0.1-1.8-0.4c-1.1-0.7-1.4-2.1-1.2-3.4c0.2-1.3,2.2-2,2.8-1.9
	c1.3,0,2.3,1.1,2.5,2.4C204.5,301.2,203.3,303.2,201.9,303.2z M310.2,344.8c-0.1,0.5-0.6,1.2-0.9,1.6c-0.9,1.1-2.8,1.1-3.9,0.2
	c-0.6-0.5-1-1.2-1.1-1.9c-0.2-0.8-0.1-1.7,0.4-2.5c0.8-1.2,2.4-1.7,3.7-1.2c0.2,0.1,0.4,0.2,0.5,0.3
	C309.7,342,310.5,343.1,310.2,344.8z M314.7,309.8c0.6-1.3,1.7-2.5,3.1-3c1.4-0.5,2.7-0.4,3.7,0.7c0.5,0.5,0.7,1.2,0.5,1.8
	C319.6,309.2,317.2,309.3,314.7,309.8z M320.3,312.3c1.6-0.3,3.3,0.4,4.3,1.6c0,0,0,0,0-0.1l0.1,0.1c0,0,0,0,0,0
	c0.2,0.3,0.2,0.6,0.1,0.9c-2.6-0.4-5.3-0.2-7.8,0.6C317.3,313.8,318.7,312.6,320.3,312.3z M319.2,320.4c0-1.3,1.2-2.3,2.5-2.6
	c1.3-0.2,2.4-0.1,3.6,0.2c1.1,0.1,2.1,0.9,2.4,2C324.9,319.5,322,319.9,319.2,320.4z"/>
</svg>
